<svg width="32" height="32" viewBox="0 0 32 32" fill="none" xmlns="http://www.w3.org/2000/svg">
<path fill-rule="evenodd" clip-rule="evenodd" d="M9.21656 11.7814L9.34755 11.4757L9.87643 12.7217C9.89081 12.7206 9.90534 12.72 9.92 12.72C10.2293 12.72 10.48 12.9707 10.48 13.28C10.48 13.5893 10.2293 13.84 9.92 13.84C9.61072 13.84 9.36 13.5893 9.36 13.28C9.36 13.0705 9.47507 12.8878 9.64547 12.7918L9.21656 11.7814ZM10.24 13.28C10.24 13.4567 10.0967 13.6 9.92 13.6C9.74327 13.6 9.6 13.4567 9.6 13.28C9.6 13.1033 9.74327 12.96 9.92 12.96C10.0967 12.96 10.24 13.1033 10.24 13.28Z" fill="#F5F5DC" style="fill:#F5F5DC;fill:color(display-p3 0.9608 0.9608 0.8627);fill-opacity:1;"/>
<path fill-rule="evenodd" clip-rule="evenodd" d="M22.6186 6.05605L23.1619 7.17647L21.7201 9.19497C21.6377 9.14729 21.542 9.12 21.44 9.12C21.1307 9.12 20.88 9.37072 20.88 9.68C20.88 9.98928 21.1307 10.24 21.44 10.24C21.7493 10.24 22 9.98928 22 9.68C22 9.56025 21.9624 9.44928 21.8984 9.35824L23.44 7.2L22.9395 6.16764L22.6186 6.05605ZM21.76 9.68C21.76 9.85673 21.6167 10 21.44 10C21.2633 10 21.12 9.85673 21.12 9.68C21.12 9.50327 21.2633 9.36 21.44 9.36C21.6167 9.36 21.76 9.50327 21.76 9.68Z" fill="#F5F5DC" style="fill:#F5F5DC;fill:color(display-p3 0.9608 0.9608 0.8627);fill-opacity:1;"/>
<path d="M23.32 14.4H22.952C22.9149 14.2174 22.7535 14.08 22.56 14.08C22.3391 14.08 22.16 14.2591 22.16 14.48C22.16 14.7009 22.3391 14.88 22.56 14.88C22.724 14.88 22.865 14.7813 22.9267 14.64H23.32V14.4Z" fill="#F5F5DC" style="fill:#F5F5DC;fill:color(display-p3 0.9608 0.9608 0.8627);fill-opacity:1;"/>
<path fill-rule="evenodd" clip-rule="evenodd" d="M18.16 20.78V20.3768C18.3913 20.308 18.56 20.0937 18.56 19.84C18.56 19.5307 18.3093 19.28 18 19.28C17.6907 19.28 17.44 19.5307 17.44 19.84C17.44 20.1221 17.6486 20.3555 17.92 20.3943V21.02L18.16 20.78ZM18 20.16C18.1767 20.16 18.32 20.0167 18.32 19.84C18.32 19.6633 18.1767 19.52 18 19.52C17.8233 19.52 17.68 19.6633 17.68 19.84C17.68 20.0167 17.8233 20.16 18 20.16Z" fill="#F5F5DC" style="fill:#F5F5DC;fill:color(display-p3 0.9608 0.9608 0.8627);fill-opacity:1;"/>
<path fill-rule="evenodd" clip-rule="evenodd" d="M9.05822 21.6358L10.7994 20.6313C10.9011 20.7354 11.043 20.8 11.2 20.8C11.5093 20.8 11.76 20.5493 11.76 20.24C11.76 19.9307 11.5093 19.68 11.2 19.68C10.8907 19.68 10.64 19.9307 10.64 20.24C10.64 20.3058 10.6513 20.3689 10.6722 20.4276L8.89408 21.4534L9.05822 21.6358ZM11.52 20.24C11.52 20.4167 11.3767 20.56 11.2 20.56C11.0233 20.56 10.88 20.4167 10.88 20.24C10.88 20.0633 11.0233 19.92 11.2 19.92C11.3767 19.92 11.52 20.0633 11.52 20.24Z" fill="#F5F5DC" style="fill:#F5F5DC;fill:color(display-p3 0.9608 0.9608 0.8627);fill-opacity:1;"/>
<path d="M12.64 10.3127V17.76H14.6618V14.8509H17.3382V17.76H19.36V10.3127H17.3382V13.2218H14.6618V10.3127H12.64Z" fill="#F5F5DC" style="fill:#F5F5DC;fill:color(display-p3 0.9608 0.9608 0.8627);fill-opacity:1;"/>
<path fill-rule="evenodd" clip-rule="evenodd" d="M0 3.84C0 1.71923 1.71923 0 3.84 0H28.16C30.2808 0 32 1.71923 32 3.84V28.16C32 30.2808 30.2808 32 28.16 32H3.84C1.71923 32 0 30.2808 0 28.16V3.84ZM8.68 12.46L8.2 12.62L5.96 14.34L5.36 14.62V14.86L5.76 14.62L6.24 14.34L6.64 14.62H7.4L8 14.86L8.48 15.22L9 15.62V16.1L9.2 16.62V18.5L9 18.94V19.62L8.72 20.14L8.2 20.62L8.48 20.9L8.76 20.74L9 21.14L8.72 21.26L8.89408 21.4534L8.64 21.6V24.0066C8.41298 24.0447 8.24 24.2422 8.24 24.48C8.24 24.7451 8.4549 24.96 8.72 24.96C8.9851 24.96 9.2 24.7451 9.2 24.48C9.2 24.271 9.06643 24.0932 8.88 24.0273V21.7386L9.05822 21.6358L9.08 21.66L9.56 22.22L10 22.78L10.24 23.38L11.24 22.98H11.76L12.08 23.22V24.18L11.36 24.34L11 24.58L10.76 25.26L10.64 25.94L10.24 26.46H10.64L11 27.06L11.24 27.54H11.6L11.76 28.14L11.6 28.54L12.08 28.82L12.28 29.58L12.68 29.9L13 30.06L13.36 29.9L13.6 30.26L13.76 30.06L14.08 29.58V27.74L13.92 27.38L13.76 26.86L13.6 26.26L13.76 25.66L14.08 25.18L14.44 24.58L14.72 23.9L14.92 23.22L15.08 22.58L15.52 22.1L16.24 21.78L16.96 21.5L17.68 21.26L17.92 21.02V22.64H18.0141L19.8735 23.7436C19.8519 23.7982 19.84 23.8577 19.84 23.92C19.84 24.1851 20.0549 24.4 20.32 24.4C20.5851 24.4 20.8 24.1851 20.8 23.92C20.8 23.6549 20.5851 23.44 20.32 23.44C20.2045 23.44 20.0984 23.4808 20.0156 23.5488L18.16 22.4475V20.78L18.32 20.62L19 20.14L19.44 19.62L20.12 19.26H20.72L21.4 19.62L22.24 19.46L22.96 19.26L23.16 18.78V17.9L22.96 17.46L22.64 16.9L22.4 16.26L22.64 15.78L22.96 15.22L23.32 14.86V14.64H25.7133C25.775 14.7813 25.916 14.88 26.08 14.88C26.3009 14.88 26.48 14.7009 26.48 14.48C26.48 14.2591 26.3009 14.08 26.08 14.08C25.8865 14.08 25.7251 14.2174 25.688 14.4H23.32V14.34L23.16 13.62L22.96 13.1L23.32 12.46L22.96 11.98L23.16 11.22L23.64 10.62L23.84 10.02L24.28 9.38L24.72 9.1L25.48 8.94L25.8 8.46L26.2 8.1L26.64 7.66L26.36 7.38L26.44 6.86H24.72L24 6.58L23.32 6.3L22.9395 6.16764L22.2091 4.66119C22.3261 4.55855 22.4 4.40791 22.4 4.24C22.4 3.93072 22.1493 3.68 21.84 3.68C21.5307 3.68 21.28 3.93072 21.28 4.24C21.28 4.54928 21.5307 4.8 21.84 4.8C21.8951 4.8 21.9483 4.79205 21.9986 4.77722L22.6186 6.05605L22.4 5.98L21.6 5.66L20.76 5.46L20.12 6.14L19.68 5.98L19.04 6.3L18.68 5.98V5.66L18.32 5.14V4.66L17.88 3.98L17.48 3.18L16.96 2.42L16.36 2.78L15.8 3.34L15.44 2.42L14.44 1.9L13.68 1.74L13.08 2.42L13.28 3.18L13.08 3.7H12.72L12.88 3.98V4.98L12.32 5.46V6.3L11.64 6.86V7.26L11.44 8.1L10.72 8.94L10.4 9.38L10.28 10.3L9.56 10.98L9.34755 11.4757L9.02092 10.7062L9.0062 10.7125L9.00964 10.6996L6.95991 10.1504C6.95479 9.88974 6.74189 9.68 6.48 9.68C6.2149 9.68 6 9.8949 6 10.16C6 10.4251 6.2149 10.64 6.48 10.64C6.66417 10.64 6.82412 10.5363 6.90461 10.3841L8.84403 10.9037L9.21656 11.7814L9.2 11.82L8.68 12.46Z" fill="#F5F5DC" style="fill:#F5F5DC;fill:color(display-p3 0.9608 0.9608 0.8627);fill-opacity:1;"/>
</svg>
