<svg width="24" height="25" viewBox="0 0 24 25" fill="none" xmlns="http://www.w3.org/2000/svg">
<path d="M22.4612 6.14514C24.3904 10.4031 23.1365 14.3993 21.7034 16.2872L23.8944 24.4311H21.3037L18.7682 15.6671C20.3391 14.165 21.3175 11.1059 20.5596 8.58419C19.8706 6.0349 17.7485 3.88524 14.7445 3.2927C11.52 2.63127 8.47464 4.28486 7.17933 6.57232C6.35254 7.82629 6.21474 9.02514 6.07694 10.4996C6.07694 10.4996 4.45091 14.3993 3.89971 15.8186H5.6222L5.63598 21.8129H16.2603L17.0044 24.4724H3.00402V18.1612L0 18.1474C0 18.1474 3.25206 10.7201 3.23828 10.4996C3.4312 7.89519 4.60249 4.65691 7.08287 2.72773C8.35062 1.73557 10.0456 0.78476 12.3055 0.564282C14.7583 0.330023 15.8056 0.77098 17.4454 1.32218C20.1876 2.49347 22.0478 5.13921 22.4612 6.14514Z" fill="#F5F5DC" style="fill:#F5F5DC;fill:color(display-p3 0.9608 0.9608 0.8627);fill-opacity:1;"/>
</svg>
