<svg width="24" height="25" viewBox="0 0 24 25" fill="none" xmlns="http://www.w3.org/2000/svg">
<path d="M19.7599 8.51542C20.1595 10.1139 20.1182 10.982 19.8426 12.2636C19.4843 13.6967 18.6989 14.7577 17.9547 15.4192L20.6143 24.5001H17.9823C17.1004 21.1792 15.998 17.5137 15.0885 14.1927C15.6259 13.9034 17.1279 13.049 17.376 11.0509C17.6102 9.17686 16.439 7.71619 15.6397 7.17877C14.9369 6.75159 13.9034 6.42088 12.9389 6.61379C11.0648 6.82049 9.79704 8.26738 9.50766 9.86585C9.46632 10.0863 9.46632 10.1966 9.43876 10.4997C9.43876 10.4997 8.70842 12.5529 8.46039 13.2006H9.01158L8.9978 18.5334H15.3366L16.0669 21.124H6.37962V15.1573H5.04297C5.52527 13.7104 6.76546 10.4997 6.76546 10.4997C6.91704 9.34221 6.98594 7.12365 9.3423 5.3047C10.4447 4.38145 12.1672 3.76135 14.0137 3.91293C17.059 4.28499 19.0847 6.36576 19.7599 8.51542Z" fill="#F5F5DC" style="fill:#F5F5DC;fill:color(display-p3 0.9608 0.9608 0.8627);fill-opacity:1;"/>
<path d="M22.4612 6.14514C24.3904 10.4031 23.1365 14.3993 21.7034 16.2872L23.8944 24.4311H21.3037L18.7682 15.6671C20.3391 14.165 21.3175 11.1059 20.5596 8.58419C19.8706 6.0349 17.7485 3.88524 14.7445 3.2927C11.52 2.63127 8.47464 4.28486 7.17933 6.57232C6.35254 7.82629 6.21474 9.02514 6.07694 10.4996C6.07694 10.4996 4.45091 14.3993 3.89971 15.8186H5.6222L5.63598 21.8129H16.2603L17.0044 24.4724H3.00402V18.1612L0 18.1474C0 18.1474 3.25206 10.7201 3.23828 10.4996C3.4312 7.89519 4.60249 4.65691 7.08287 2.72773C8.35062 1.73557 10.0456 0.78476 12.3055 0.564282C14.7583 0.330023 15.8056 0.77098 17.4454 1.32218C20.1876 2.49347 22.0478 5.13921 22.4612 6.14514Z" fill="#F5F5DC" style="fill:#F5F5DC;fill:color(display-p3 0.9608 0.9608 0.8627);fill-opacity:1;"/>
<path d="M10.8174 10.5823C10.8174 9.1354 11.9887 7.96411 13.4218 7.96411C14.8687 7.96411 16.04 9.1354 16.04 10.5823C16.04 12.0154 14.8687 13.1729 13.4218 13.1729C11.9887 13.1729 10.8174 12.0154 10.8174 10.5823Z" fill="#F5F5DC" style="fill:#F5F5DC;fill:color(display-p3 0.9608 0.9608 0.8627);fill-opacity:1;"/>
</svg>
